<svg width="22" height="22" viewBox="0 0 22 22" fill="none" xmlns="http://www.w3.org/2000/svg">
<path d="M19.2442 8.84993H13.3968C13.3191 8.84467 13.2458 8.81137 13.1907 8.75622C13.1355 8.70106 13.1022 8.62778 13.097 8.54995V2.85024C13.119 2.56183 13.0809 2.27199 12.9852 1.99905C12.8895 1.7261 12.7382 1.476 12.5409 1.26454C12.3436 1.05308 12.1046 0.884872 11.8391 0.770548C11.5735 0.656223 11.287 0.598271 10.9979 0.600354C10.7011 0.594859 10.4062 0.649299 10.1308 0.760421C9.85547 0.871543 9.60535 1.03706 9.3954 1.24709C9.18546 1.45712 9.02001 1.70733 8.90893 1.98279C8.79785 2.25824 8.74343 2.55327 8.74892 2.85024V8.69994C8.74366 8.77777 8.71038 8.85105 8.65524 8.90621C8.60011 8.96137 8.52686 8.99466 8.44906 8.99993H2.75161C2.4607 8.96505 2.1657 8.99414 1.88721 9.08518C1.60871 9.17622 1.35346 9.32699 1.13927 9.52698C0.925082 9.72697 0.757136 9.97134 0.647169 10.243C0.537202 10.5147 0.487866 10.8071 0.502611 11.0998C0.517064 11.692 0.75865 12.2559 1.17733 12.6747C1.596 13.0936 2.15968 13.3352 2.75161 13.3497H8.59899C8.67679 13.355 8.75004 13.3883 8.80518 13.4434C8.86031 13.4986 8.89359 13.5719 8.89886 13.6497V19.4994C8.89164 19.7771 8.94101 20.0534 9.04394 20.3114C9.14687 20.5695 9.30123 20.8039 9.4976 21.0003C9.69397 21.1968 9.92825 21.3512 10.1862 21.4541C10.4441 21.5571 10.7203 21.6065 10.9979 21.5993C11.5898 21.5848 12.1535 21.3431 12.5722 20.9243C12.9909 20.5055 13.2325 19.9416 13.2469 19.3494V13.4997C13.2522 13.4219 13.2855 13.3486 13.3406 13.2934C13.3957 13.2383 13.469 13.205 13.5468 13.1997H19.3942C19.9473 13.1882 20.4745 12.9633 20.8657 12.572C21.2569 12.1806 21.4817 11.6531 21.4932 11.0998C21.5177 10.7982 21.4763 10.4948 21.3719 10.2107C21.2676 9.92662 21.1027 9.66864 20.8888 9.45463C20.6748 9.24062 20.417 9.07569 20.133 8.97128C19.849 8.86687 19.5458 8.82546 19.2442 8.84993Z" fill="black"/>
</svg>
