<svg width="10" height="6" viewBox="0 0 10 6" fill="none" xmlns="http://www.w3.org/2000/svg">
<path fill-rule="evenodd" clip-rule="evenodd" d="M1.0472 0.000101818C1.32181 -0.00223137 1.58705 0.0998801 1.7892 0.285759L5.00284 3.31872L8.21077 0.28933C8.41266 0.103284 8.67715 0 8.95169 0C9.22624 0 9.49073 0.103284 9.69262 0.28933C9.78951 0.378425 9.86686 0.486661 9.91977 0.60719C9.97268 0.727718 10 0.857916 10 0.989547C10 1.12118 9.97268 1.25138 9.91977 1.3719C9.86686 1.49243 9.78951 1.60067 9.69262 1.68976L5.73984 5.42259C5.53865 5.60947 5.27422 5.71333 4.99963 5.71333C4.72504 5.71333 4.46061 5.60947 4.25942 5.42259L0.308066 1.68976C0.210978 1.60078 0.133456 1.49259 0.0804212 1.37204C0.0273869 1.2515 0 1.12124 0 0.989547C0 0.857852 0.0273869 0.727596 0.0804212 0.607052C0.133456 0.486508 0.210978 0.37831 0.308066 0.28933C0.508715 0.102457 0.773014 -0.000964813 1.0472 0.000101818Z" fill="black"/>
</svg>
