<svg width="12" height="13" viewBox="0 0 12 13" fill="none" xmlns="http://www.w3.org/2000/svg">
<path fill-rule="evenodd" clip-rule="evenodd" d="M9.02597 0.564008L6.00098 3.75741L2.97599 0.561481C2.81662 0.386126 2.62572 0.246146 2.41448 0.149746C2.20324 0.0533457 1.97591 0.00246548 1.74582 8.74017e-05C1.51573 -0.00229067 1.2875 0.0438814 1.07452 0.135897C0.861532 0.227912 0.668077 0.36392 0.505489 0.535948C0.3429 0.707976 0.214451 0.912562 0.12767 1.13772C0.0408882 1.36287 -0.0024791 1.60406 0.000109407 1.84715C0.00269791 2.09024 0.0511901 2.33034 0.142744 2.55337C0.234298 2.77641 0.367071 2.97789 0.533281 3.14601L3.55708 6.34194L0.535673 9.53407C0.219791 9.87888 0.0448149 10.341 0.0484674 10.8209C0.0521199 11.3007 0.234109 11.7598 0.555198 12.0992C0.876288 12.4386 1.31076 12.6311 1.76494 12.6352C2.21913 12.6393 2.65664 12.4547 2.98316 12.1211L6.00098 8.92268L9.02358 12.1173C9.18308 12.2924 9.374 12.432 9.58518 12.5282C9.79636 12.6243 10.0236 12.675 10.2535 12.6773C10.4835 12.6796 10.7115 12.6335 10.9244 12.5416C11.1373 12.4497 11.3307 12.3138 11.4933 12.142C11.6559 11.9703 11.7844 11.7659 11.8714 11.541C11.9584 11.3161 12.0021 11.0752 11.9999 10.8322C11.9977 10.5893 11.9497 10.3493 11.8587 10.1261C11.7677 9.90302 11.6355 9.70132 11.4699 9.53281L8.45206 6.3432L11.4735 3.15106C11.7893 2.80625 11.9643 2.3441 11.9607 1.86425C11.957 1.3844 11.775 0.925288 11.4539 0.585889C11.1328 0.24649 10.6984 0.0539935 10.2442 0.0499002C9.79001 0.045807 9.35249 0.230445 9.02597 0.564008Z" fill="#000"/>
</svg>
