<svg width="26" height="19" viewBox="0 0 26 19" fill="none" xmlns="http://www.w3.org/2000/svg">
<g clip-path="url(#clip0_480_5401)">
<path d="M0 2C0 0.895433 0.895431 0 2 0H24C25.1046 0 26 0.895431 26 2V16.5714C26 17.676 25.1046 18.5714 24 18.5714H2C0.89543 18.5714 0 17.676 0 16.5714V2Z" fill="white"/>
<path fill-rule="evenodd" clip-rule="evenodd" d="M0 0H8.66667V18.5714H0V0ZM17.3333 0H26V18.5714H17.3333V0Z" fill="#3B8557"/>
</g>
<defs>
<clipPath id="clip0_480_5401">
<path d="M0 2C0 0.895433 0.895431 0 2 0H24C25.1046 0 26 0.895431 26 2V16.5714C26 17.676 25.1046 18.5714 24 18.5714H2C0.89543 18.5714 0 17.676 0 16.5714V2Z" fill="white"/>
</clipPath>
</defs>
</svg>
